<svg width="165" height="48" viewBox="0 0 165 48" fill="none" xmlns="http://www.w3.org/2000/svg">
<path d="M15.7144 33.4286C24.3931 33.4286 31.4287 26.393 31.4287 17.7143C31.4287 16.7307 31.3383 15.7682 31.1654 14.8347C30.2319 14.6618 29.2694 14.5714 28.2858 14.5714C19.6071 14.5714 12.5715 21.6069 12.5715 30.2857C12.5715 31.2693 12.6619 32.2318 12.8348 33.1653C13.7683 33.3382 14.7308 33.4286 15.7144 33.4286Z" fill="white"/>
<path opacity="0.8" fill-rule="evenodd" clip-rule="evenodd" d="M12.8347 33.1653C5.53118 31.8127 0 25.4095 0 17.7143C0 9.03553 7.03553 2 15.7143 2C23.4095 2 29.8128 7.53118 31.1653 14.8347C30.2318 14.6618 29.2693 14.5714 28.2857 14.5714C19.607 14.5714 12.5714 21.607 12.5714 30.2857C12.5714 31.2693 12.6618 32.2318 12.8347 33.1653Z" fill="white"/>
<path opacity="0.6" fill-rule="evenodd" clip-rule="evenodd" d="M15.7143 33.4285C24.3931 33.4285 31.4286 26.393 31.4286 17.7142C31.4286 16.7306 31.3382 15.7681 31.1654 14.8346C38.4689 16.1872 44 22.5905 44 30.2856C44 38.9644 36.9645 45.9999 28.2858 45.9999C20.5906 45.9999 14.1873 40.4687 12.8347 33.1652C13.7682 33.3381 14.7307 33.4285 15.7143 33.4285Z" fill="white"/>
<path d="M67.55 34.2401C72.92 34.2401 76.79 31.2101 77.18 26.7101H72.68C72.32 28.8701 70.25 30.3401 67.55 30.3401C64.16 30.3401 61.55 28.0001 61.55 23.5001C61.55 19.0001 64.16 16.6301 67.55 16.6301C70.19 16.6301 72.26 18.1001 72.56 20.2901H77.27C76.7 15.7601 72.83 12.7601 67.55 12.7601C61.94 12.7601 57.02 16.4201 57.02 23.5001C57.02 30.5801 61.85 34.2401 67.55 34.2401Z" fill="white"/>
<path d="M85.5313 18.6401C81.3913 18.6401 78.9313 21.0701 78.7513 24.1001H82.4713C82.5313 22.8401 83.4613 21.7001 85.2913 21.7001C87.0013 21.7001 87.9913 22.5701 87.9913 23.8301C87.9913 24.4601 87.6013 24.9401 86.8513 24.9401H84.3013C81.0013 24.9401 78.7813 26.7401 78.7813 29.7101C78.7813 32.2901 80.7913 34.2401 83.7313 34.2401C85.8013 34.2401 87.4813 33.3101 87.9913 31.9001V34.0001H92.1313V24.2801C92.1313 20.8601 89.3413 18.6401 85.5313 18.6401ZM84.7813 31.2101C83.6113 31.2101 82.7713 30.5201 82.7713 29.5301C82.7713 28.3601 83.6713 27.5801 84.9313 27.5801H87.9913V27.7901C87.9913 29.7101 86.8213 31.2101 84.7813 31.2101Z" fill="white"/>
<path d="M94.9337 40.1201H99.1037V32.6501C99.9137 33.6701 101.384 34.2401 103.094 34.2401C107.444 34.2401 110.384 31.1501 110.384 26.4401C110.384 21.7301 107.684 18.6401 103.454 18.6401C101.504 18.6401 100.004 19.3601 99.1037 20.5301V18.8801H94.9337V40.1201ZM102.584 30.6401C100.334 30.6401 98.8637 28.9601 98.8637 26.4401C98.8637 23.8901 100.334 22.2101 102.584 22.2101C104.774 22.2101 106.274 23.8901 106.274 26.4401C106.274 28.9601 104.774 30.6401 102.584 30.6401Z" fill="white"/>
<path d="M117.726 34.2401C121.266 34.2401 123.606 32.3501 123.606 29.4701C123.606 22.6301 115.326 26.1401 115.326 23.0501C115.326 22.0901 116.136 21.5801 117.306 21.5801C118.446 21.5801 119.616 22.2701 119.796 23.5601H123.426C123.276 20.5901 120.816 18.6401 117.186 18.6401C114.096 18.6401 111.786 20.5301 111.786 23.2001C111.786 29.5601 119.916 26.5301 119.916 29.6201C119.916 30.4601 119.016 31.0901 117.726 31.0901C116.166 31.0901 115.116 30.2501 114.966 28.9001H111.366C111.516 32.1701 114.036 34.2401 117.726 34.2401Z" fill="white"/>
<path d="M140.076 18.8801H135.876V27.1601C135.876 29.0801 134.586 30.5201 132.756 30.5201C131.046 30.5201 129.846 29.2001 129.846 27.3701V18.8801H125.676V28.3001C125.676 31.7501 127.896 34.2401 131.286 34.2401C133.356 34.2401 135.036 33.3401 135.876 31.9001V34.0001H140.076V18.8801Z" fill="white"/>
<path d="M143.077 34.0001H147.247V12.3101H143.077V34.0001Z" fill="white"/>
<path d="M160.352 28.8701C160.022 30.1601 158.912 30.8201 157.232 30.8201C155.132 30.8201 153.782 29.5001 153.482 27.3701H164.342C164.372 27.0401 164.402 26.5901 164.402 26.0201C164.402 22.5701 162.272 18.6401 156.932 18.6401C151.802 18.6401 149.462 22.5701 149.462 26.4101C149.462 30.2201 152.102 34.2401 157.232 34.2401C160.952 34.2401 163.832 32.1401 164.432 28.8701H160.352ZM156.932 21.7001C158.942 21.7001 160.112 23.0501 160.232 24.7301H153.542C153.902 22.6301 155.042 21.7001 156.932 21.7001Z" fill="white"/>
</svg>
