<svg width="165" height="48" viewBox="0 0 165 48" fill="none" xmlns="http://www.w3.org/2000/svg">
<path d="M15.7144 33.4286C24.3931 33.4286 31.4287 26.393 31.4287 17.7143C31.4287 16.7307 31.3383 15.7682 31.1654 14.8347C30.2319 14.6618 29.2694 14.5714 28.2858 14.5714C19.6071 14.5714 12.5715 21.6069 12.5715 30.2857C12.5715 31.2693 12.6619 32.2318 12.8348 33.1653C13.7683 33.3382 14.7308 33.4286 15.7144 33.4286Z" fill="#175CD3"/>
<path fill-rule="evenodd" clip-rule="evenodd" d="M12.8347 33.1653C5.53118 31.8127 0 25.4095 0 17.7143C0 9.03553 7.03553 2 15.7143 2C23.4095 2 29.8128 7.53118 31.1653 14.8347C30.2318 14.6618 29.2693 14.5714 28.2857 14.5714C19.607 14.5714 12.5714 21.607 12.5714 30.2857C12.5714 31.2693 12.6618 32.2318 12.8347 33.1653Z" fill="#1570EF"/>
<path fill-rule="evenodd" clip-rule="evenodd" d="M15.7143 33.4285C24.3931 33.4285 31.4286 26.393 31.4286 17.7142C31.4286 16.7306 31.3382 15.7681 31.1654 14.8346C38.4689 16.1872 44 22.5905 44 30.2856C44 38.9644 36.9645 45.9999 28.2858 45.9999C20.5906 45.9999 14.1873 40.4687 12.8347 33.1652C13.7682 33.3381 14.7307 33.4285 15.7143 33.4285Z" fill="#2E90FA"/>
<path d="M67.55 34.24C72.92 34.24 76.79 31.21 77.18 26.71H72.68C72.32 28.87 70.25 30.34 67.55 30.34C64.16 30.34 61.55 28 61.55 23.5C61.55 19 64.16 16.63 67.55 16.63C70.19 16.63 72.26 18.1 72.56 20.29H77.27C76.7 15.76 72.83 12.76 67.55 12.76C61.94 12.76 57.02 16.42 57.02 23.5C57.02 30.58 61.85 34.24 67.55 34.24Z" fill="#101828"/>
<path d="M85.5313 18.64C81.3913 18.64 78.9313 21.07 78.7513 24.1H82.4713C82.5313 22.84 83.4613 21.7 85.2913 21.7C87.0013 21.7 87.9913 22.57 87.9913 23.83C87.9913 24.46 87.6013 24.94 86.8513 24.94H84.3013C81.0013 24.94 78.7813 26.74 78.7813 29.71C78.7813 32.29 80.7913 34.24 83.7313 34.24C85.8013 34.24 87.4813 33.31 87.9913 31.9V34H92.1313V24.28C92.1313 20.86 89.3413 18.64 85.5313 18.64ZM84.7813 31.21C83.6113 31.21 82.7713 30.52 82.7713 29.53C82.7713 28.36 83.6713 27.58 84.9313 27.58H87.9913V27.79C87.9913 29.71 86.8213 31.21 84.7813 31.21Z" fill="#101828"/>
<path d="M94.9337 40.12H99.1037V32.65C99.9137 33.67 101.384 34.24 103.094 34.24C107.444 34.24 110.384 31.15 110.384 26.44C110.384 21.73 107.684 18.64 103.454 18.64C101.504 18.64 100.004 19.36 99.1037 20.53V18.88H94.9337V40.12ZM102.584 30.64C100.334 30.64 98.8637 28.96 98.8637 26.44C98.8637 23.89 100.334 22.21 102.584 22.21C104.774 22.21 106.274 23.89 106.274 26.44C106.274 28.96 104.774 30.64 102.584 30.64Z" fill="#101828"/>
<path d="M117.726 34.24C121.266 34.24 123.606 32.35 123.606 29.47C123.606 22.63 115.326 26.14 115.326 23.05C115.326 22.09 116.136 21.58 117.306 21.58C118.446 21.58 119.616 22.27 119.796 23.56H123.426C123.276 20.59 120.816 18.64 117.186 18.64C114.096 18.64 111.786 20.53 111.786 23.2C111.786 29.56 119.916 26.53 119.916 29.62C119.916 30.46 119.016 31.09 117.726 31.09C116.166 31.09 115.116 30.25 114.966 28.9H111.366C111.516 32.17 114.036 34.24 117.726 34.24Z" fill="#101828"/>
<path d="M140.076 18.88H135.876V27.16C135.876 29.08 134.586 30.52 132.756 30.52C131.046 30.52 129.846 29.2 129.846 27.37V18.88H125.676V28.3C125.676 31.75 127.896 34.24 131.286 34.24C133.356 34.24 135.036 33.34 135.876 31.9V34H140.076V18.88Z" fill="#101828"/>
<path d="M143.077 34H147.247V12.31H143.077V34Z" fill="#101828"/>
<path d="M160.352 28.87C160.022 30.16 158.912 30.82 157.232 30.82C155.132 30.82 153.782 29.5 153.482 27.37H164.342C164.372 27.04 164.402 26.59 164.402 26.02C164.402 22.57 162.272 18.64 156.932 18.64C151.802 18.64 149.462 22.57 149.462 26.41C149.462 30.22 152.102 34.24 157.232 34.24C160.952 34.24 163.832 32.14 164.432 28.87H160.352ZM156.932 21.7C158.942 21.7 160.112 23.05 160.232 24.73H153.542C153.902 22.63 155.042 21.7 156.932 21.7Z" fill="#101828"/>
</svg>
