<svg width="180" height="135" viewBox="0 0 180 135" fill="none" xmlns="http://www.w3.org/2000/svg">
<rect x="0.5" y="0.5" width="179" height="134" rx="3.5" fill="#EAECF0"/>
<path d="M83 67H97C98.1046 67 99 66.1046 99 65V51C99 49.8954 98.1046 49 97 49H83C81.8954 49 81 49.8954 81 51V65C81 66.1046 81.8954 67 83 67ZM83 67L94 56L99 61M88 54.5C88 55.3284 87.3284 56 86.5 56C85.6716 56 85 55.3284 85 54.5C85 53.6716 85.6716 53 86.5 53C87.3284 53 88 53.6716 88 54.5Z" stroke="#667085" stroke-width="2" stroke-linecap="round" stroke-linejoin="round"/>
<path d="M73.26 78.4V85H72.27L69.51 80.58L68.81 79.34H68.8L68.84 80.34V85H68.08V78.4H69.07L71.82 82.8L72.53 84.07H72.54L72.5 83.06V78.4H73.26ZM77.2656 79.9C77.739 79.9 78.1556 80.0033 78.5156 80.21C78.8823 80.4167 79.169 80.7167 79.3756 81.11C79.5823 81.4967 79.6856 81.96 79.6856 82.5C79.6856 83.04 79.5823 83.5067 79.3756 83.9C79.169 84.2867 78.8823 84.5833 78.5156 84.79C78.1556 84.9967 77.739 85.1 77.2656 85.1C76.799 85.1 76.3823 84.9967 76.0156 84.79C75.649 84.5833 75.3623 84.2867 75.1556 83.9C74.949 83.5067 74.8456 83.04 74.8456 82.5C74.8456 81.96 74.949 81.4967 75.1556 81.11C75.3623 80.7167 75.649 80.4167 76.0156 80.21C76.3823 80.0033 76.799 79.9 77.2656 79.9ZM77.2656 80.59C76.9256 80.59 76.6356 80.6667 76.3956 80.82C76.1556 80.9733 75.969 81.1933 75.8356 81.48C75.709 81.76 75.6456 82.1 75.6456 82.5C75.6456 82.8933 75.709 83.2333 75.8356 83.52C75.969 83.8067 76.1556 84.0267 76.3956 84.18C76.6356 84.3333 76.9256 84.41 77.2656 84.41C77.6056 84.41 77.8956 84.3333 78.1356 84.18C78.3756 84.0267 78.559 83.8067 78.6856 83.52C78.819 83.2333 78.8856 82.8933 78.8856 82.5C78.8856 82.1 78.819 81.76 78.6856 81.48C78.559 81.1933 78.3756 80.9733 78.1356 80.82C77.8956 80.6667 77.6056 80.59 77.2656 80.59ZM85.5499 78.4V85H84.7499V78.4H85.5499ZM87.5101 85V80H88.2101L88.2601 80.78C88.4401 80.4733 88.6734 80.25 88.9601 80.11C89.2534 79.97 89.5534 79.9 89.8601 79.9C90.2134 79.9 90.5467 79.98 90.8601 80.14C91.1734 80.3 91.4134 80.5467 91.5801 80.88C91.6867 80.6533 91.8367 80.47 92.0301 80.33C92.2234 80.1833 92.4334 80.0767 92.6601 80.01C92.8934 79.9367 93.1134 79.9 93.3201 79.9C93.6401 79.9 93.9434 79.9667 94.2301 80.1C94.5234 80.2333 94.7634 80.44 94.9501 80.72C95.1367 81 95.2301 81.36 95.2301 81.8V85H94.4301V81.88C94.4301 81.4267 94.3167 81.1 94.0901 80.9C93.8634 80.7 93.5834 80.6 93.2501 80.6C92.9901 80.6 92.7467 80.6633 92.5201 80.79C92.2934 80.9167 92.1101 81.1033 91.9701 81.35C91.8367 81.5967 91.7701 81.9 91.7701 82.26V85H90.9701V81.88C90.9701 81.4267 90.8567 81.1 90.6301 80.9C90.4034 80.7 90.1234 80.6 89.7901 80.6C89.5701 80.6 89.3434 80.66 89.1101 80.78C88.8834 80.8933 88.6934 81.0767 88.5401 81.33C88.3867 81.5833 88.3101 81.9167 88.3101 82.33V85H87.5101ZM99.9613 81.77C99.9613 81.3967 99.8613 81.11 99.6613 80.91C99.4613 80.7033 99.178 80.6 98.8113 80.6C98.4647 80.6 98.1713 80.6767 97.9313 80.83C97.6913 80.9767 97.5147 81.2167 97.4013 81.55L96.7513 81.15C96.8847 80.7767 97.1313 80.4767 97.4913 80.25C97.8513 80.0167 98.298 79.9 98.8313 79.9C99.1913 79.9 99.518 79.9633 99.8113 80.09C100.105 80.21 100.335 80.3967 100.501 80.65C100.675 80.8967 100.761 81.2167 100.761 81.61V84.03C100.761 84.27 100.888 84.39 101.141 84.39C101.268 84.39 101.391 84.3733 101.511 84.34L101.471 84.97C101.338 85.0367 101.165 85.07 100.951 85.07C100.758 85.07 100.585 85.0333 100.431 84.96C100.278 84.8867 100.158 84.7767 100.071 84.63C99.9847 84.4767 99.9413 84.2867 99.9413 84.06V83.96L100.141 83.99C100.061 84.25 99.9247 84.4633 99.7313 84.63C99.538 84.79 99.3213 84.91 99.0813 84.99C98.8413 85.0633 98.6047 85.1 98.3713 85.1C98.078 85.1 97.8047 85.05 97.5513 84.95C97.298 84.85 97.0947 84.7 96.9413 84.5C96.7947 84.2933 96.7213 84.04 96.7213 83.74C96.7213 83.3667 96.8447 83.06 97.0913 82.82C97.3447 82.5733 97.6947 82.4067 98.1413 82.32L100.121 81.93V82.59L98.5113 82.92C98.1847 82.9867 97.9413 83.08 97.7813 83.2C97.6213 83.32 97.5413 83.4867 97.5413 83.7C97.5413 83.9067 97.6213 84.0767 97.7813 84.21C97.948 84.3367 98.1813 84.4 98.4813 84.4C98.6747 84.4 98.858 84.3767 99.0313 84.33C99.2113 84.2767 99.3713 84.2 99.5113 84.1C99.6513 83.9933 99.7613 83.8633 99.8413 83.71C99.9213 83.55 99.9613 83.3633 99.9613 83.15V81.77ZM106.915 79.08L107.095 79.79C107.089 79.79 107.079 79.79 107.065 79.79C107.052 79.79 107.039 79.79 107.025 79.79C106.699 79.79 106.445 79.8567 106.265 79.99C106.092 80.1167 106.005 80.3233 106.005 80.61L105.515 80.36C105.515 80.1 105.575 79.8733 105.695 79.68C105.815 79.4867 105.979 79.34 106.185 79.24C106.392 79.1333 106.619 79.08 106.865 79.08C106.872 79.08 106.879 79.08 106.885 79.08C106.899 79.08 106.909 79.08 106.915 79.08ZM105.395 84.36C105.869 84.36 106.239 84.47 106.505 84.69C106.772 84.9033 106.905 85.19 106.905 85.55C106.905 85.8767 106.795 86.16 106.575 86.4C106.362 86.64 106.072 86.8233 105.705 86.95C105.345 87.0833 104.939 87.15 104.485 87.15C103.699 87.15 103.109 87.0167 102.715 86.75C102.329 86.4833 102.135 86.1633 102.135 85.79C102.135 85.5233 102.222 85.2833 102.395 85.07C102.575 84.8633 102.875 84.7467 103.295 84.72L103.225 84.87C102.999 84.81 102.805 84.71 102.645 84.57C102.492 84.4233 102.415 84.2133 102.415 83.94C102.415 83.6667 102.515 83.4333 102.715 83.24C102.922 83.04 103.225 82.9167 103.625 82.87L104.155 83.14H104.055C103.729 83.1733 103.495 83.2567 103.355 83.39C103.222 83.5167 103.155 83.6567 103.155 83.81C103.155 83.9967 103.222 84.1367 103.355 84.23C103.495 84.3167 103.689 84.36 103.935 84.36H105.395ZM104.475 86.48C104.862 86.48 105.179 86.44 105.425 86.36C105.679 86.28 105.865 86.1767 105.985 86.05C106.105 85.9233 106.165 85.7867 106.165 85.64C106.165 85.46 106.092 85.3167 105.945 85.21C105.805 85.1033 105.549 85.05 105.175 85.05H103.635C103.422 85.05 103.242 85.1033 103.095 85.21C102.949 85.3233 102.875 85.4767 102.875 85.67C102.875 85.9167 103.015 86.1133 103.295 86.26C103.582 86.4067 103.975 86.48 104.475 86.48ZM104.405 79.9C104.805 79.9 105.159 79.9733 105.465 80.12C105.779 80.26 106.022 80.4567 106.195 80.71C106.369 80.9633 106.455 81.2567 106.455 81.59C106.455 81.9167 106.369 82.21 106.195 82.47C106.022 82.7233 105.779 82.9233 105.465 83.07C105.159 83.21 104.805 83.28 104.405 83.28C103.745 83.28 103.239 83.1233 102.885 82.81C102.532 82.49 102.355 82.0833 102.355 81.59C102.355 81.2567 102.442 80.9633 102.615 80.71C102.795 80.4567 103.039 80.26 103.345 80.12C103.652 79.9733 104.005 79.9 104.405 79.9ZM104.405 80.55C104.059 80.55 103.769 80.6467 103.535 80.84C103.302 81.0267 103.185 81.2767 103.185 81.59C103.185 81.8967 103.302 82.1467 103.535 82.34C103.769 82.5333 104.059 82.63 104.405 82.63C104.752 82.63 105.042 82.5333 105.275 82.34C105.509 82.1467 105.625 81.8967 105.625 81.59C105.625 81.2767 105.509 81.0267 105.275 80.84C105.042 80.6467 104.752 80.55 104.405 80.55ZM110.118 85.1C109.644 85.1 109.221 84.9967 108.848 84.79C108.481 84.5833 108.194 84.2867 107.988 83.9C107.781 83.5067 107.678 83.04 107.678 82.5C107.678 81.96 107.781 81.4967 107.988 81.11C108.194 80.7167 108.478 80.4167 108.838 80.21C109.198 80.0033 109.608 79.9 110.068 79.9C110.534 79.9 110.931 80 111.258 80.2C111.591 80.4 111.844 80.6733 112.018 81.02C112.191 81.36 112.278 81.7433 112.278 82.17C112.278 82.2833 112.274 82.3867 112.268 82.48C112.261 82.5733 112.251 82.6567 112.238 82.73H108.198V82.02H111.888L111.478 82.1C111.478 81.62 111.344 81.25 111.078 80.99C110.818 80.73 110.474 80.6 110.048 80.6C109.721 80.6 109.438 80.6767 109.198 80.83C108.964 80.9767 108.781 81.1933 108.648 81.48C108.521 81.76 108.458 82.1 108.458 82.5C108.458 82.8933 108.524 83.2333 108.658 83.52C108.791 83.8067 108.978 84.0267 109.218 84.18C109.464 84.3267 109.758 84.4 110.098 84.4C110.464 84.4 110.761 84.33 110.988 84.19C111.221 84.05 111.408 83.86 111.548 83.62L112.178 83.99C112.051 84.2167 111.888 84.4133 111.688 84.58C111.494 84.7467 111.264 84.8767 110.998 84.97C110.738 85.0567 110.444 85.1 110.118 85.1Z" fill="#667085"/>
<rect x="0.5" y="0.5" width="179" height="134" rx="3.5" stroke="#EAECF0"/>
</svg>
